<svg xmlns="http://www.w3.org/2000/svg" style="height:512px;width:512px" viewBox="0 0 512 512"><path fill="#562207" d="m483 25-33 15 3 3 9 14 21-32zM262 39l4 43 23-20-27-23zm143 2-6 1c-11 1-24 4-37 7l24 36v2c4 7 3 14 0 21-2 7-6 14-12 19s-15 8-24 6-17-9-25-19l-2-2-1-49c-25 13-48 34-66 57l17 9 3 2 1 3c5 13 5 26-2 37-6 11-18 19-35 25l-7 2-12-20-5 11-17 109-3-61c-10 24-21 48-36 70-40 61-132 155-132 155-4 4-4 6-3 8l3 5 97-78-84 87 16 3c7-6 67-62 107-88 38-25 70-54 106-82l13-71v-2l1-2c7-9 16-14 25-15a32 32 0 0 1 6 0c7 0 13 3 18 6 12 8 20 23 18 38l20-9c20-10 39-22 51-38-7 0-14-4-19-8-8-5-14-13-17-22-4-9-6-18-3-27 2-10 11-18 22-20l1-1 46-3a214 214 0 0 0 2-45l-29 31 20-65-6-9c-7-9-16-13-28-13a72 72 0 0 0-6-1zm-66 6 2 58c5 7 10 9 13 10s6 0 9-2c2-3 5-7 6-11 2-3 1-7 1-8l-31-47zm-136 65 38 64c10-4 16-9 19-14s3-11 1-18l-58-32zm284 46-78 6c-6 2-8 4-9 8-1 3-1 9 2 15s7 11 12 15c4 3 8 4 11 4l2-1a960 960 0 0 0 10-8l31-24 19-15zm-175 86-1 1c-3 0-7 2-11 6l-17 96 50-77c2-7-3-17-10-22l-9-3a14 14 0 0 0-2-1zm74 30a329 329 0 0 1-7 4l-16 7 28 17-5-28z"/></svg>